<?xml version="1.0" encoding="utf-8"?>
<svg version="1.1" xmlns="http://www.w3.org/2000/svg" xmlns:xlink="http://www.w3.org/1999/xlink"
  viewBox="0 0 425.2 425.2" xml:space="preserve">
<path fill="currentColor" d="M265.74,359.05c-17.14,0-33.59,0-50.53,0c-0.1-1.79-0.26-3.4-0.26-5.02c0.03-56.82,0.12-113.65,0.03-170.47
  c-0.01-4.16,1.21-5.8,5.28-7.18c4.58-1.55,8.62-4.78,12.77-7.47c1.76-1.14,3.2-2.77,4.81-4.2c0.39,0.51,0.57,0.63,0.57,0.75
  c-0.04,11.75,7.72,16.53,17.08,21.27c6.75,3.42,11.39,3.71,18.16,0.01c14.53-7.93,29.74-7.55,44.44,0.43
  c2.25,1.22,3.63,1.08,5.65-0.5c14.94-11.7,27.29-11.32,41.77,0.9c3.14,2.65,6.63,4.89,10.76,6.68c-0.16-0.49-0.18-1.09-0.48-1.46
  c-7.2-8.89-9.51-19.38-9.29-30.42c0.28-14.51-5.54-26.84-12.7-38.83c-2.21-3.71-4.46-4.93-8.07-1.21
  c-4.79,4.94-10.06,6.23-17.54,4.81c-5.37-1.01-9.47-4-14.47-5.15c-3.4-0.78-4.29-3.54-3.07-6.69c2.4-6.21,4.89-12.37,7.46-18.51
  c1.42-3.39,4.18-4.7,7.72-3.96c9.61,2.01,19.31,3.74,28.74,6.4c3.55,1,7.16,3.7,9.53,6.62c11.01,13.58,21.49,27.59,32.35,41.3
  c12.96,16.36,19.06,35.68,24.21,55.41c0.39,1.48-0.61,3.36-1.12,5c-0.18,0.58-0.77,1.09-1.28,1.51
  c-20.09,16.6-41.51,31.21-67.73,35.43c-9.83,1.58-20.39-1.33-30.62-2.27c-1.92-0.18-3.82-0.7-5.91-1.1
  c-1.38,4.93-2.42,9.46-3.9,13.84c-6.62,19.58-17.88,36.11-33.97,49.03c-6.13,4.92-9.3,10.8-9.68,18.27
  c-0.47,9.3-0.51,18.62-0.7,27.94C265.69,353,265.74,355.79,265.74,359.05z M309.42,209.92c-0.46-0.27-0.93-0.54-1.39-0.81
  c-1.21,1.51-2.49,2.97-3.6,4.54c-9.51,13.44-18.56,27.24-28.6,40.27c-13.54,17.57-39.83,21.32-58.1,9.05
  c0.14,5.35,3.11,9.21,9.2,10.47c6.65,1.37,13.43,2.39,20.21,2.85c13.41,0.9,24.61-3.76,32.34-15.04
  c7.61-11.09,15.08-22.29,22.06-33.79C304.84,222.03,306.83,215.8,309.42,209.92z M218.87,318.77c-0.94,10.67,0.81,12.77,10.68,13.04
  c2.45,0.07,5.04-0.16,7.34-0.94c1.99-0.68,3.64-2.32,5.45-3.54c-1.62-1.28-3.05-3.16-4.89-3.72
  C231.45,321.76,225.31,320.4,218.87,318.77z M219.62,289.76c-0.69,6.43-0.2,6.68,5.49,7.69c4.19,0.74,8.37,2.09,12.24,3.86
  c2.94,1.35,5.38,3.8,8.49,6.09C243.08,297.47,232.08,290.23,219.62,289.76z M263.55,292.24c12.21,0.34,16.91-4.18,14.02-12.38
  C273.15,283.76,268.77,287.62,263.55,292.24z M314.73,213.25c7.35,0,14.52,0,21.68,0c0.04-0.45,0.09-0.91,0.13-1.36
  c-5.79-1.09-11.56-2.22-17.36-3.24C315.82,208.05,314.84,210.02,314.73,213.25z M224.56,206.49c8.36-2.82,16.71-5.64,25.07-8.46
  C239.94,197.15,231.23,199.21,224.56,206.49z"/>
<path fill="currentColor" d="M52.46,192.23c3.73-1.98,7.61-3.71,11.16-5.97c13.86-8.85,24.42-8.5,36.95,1.92c2.83,2.35,4.93,2.6,8.33,1.12
  c17.18-7.51,33.96-7.44,49.65,3.99c1.36,0.99,3.03,3.38,2.69,4.57c-3.58,12.38-7.55,24.65-11.4,36.96
  c-0.57-0.02-1.14-0.03-1.71-0.05c-7.52-8.91-15.05-17.81-22.57-26.72c-0.46,0.33-0.92,0.66-1.38,0.99c1.39,2.31,2.64,4.71,4.19,6.9
  c5.01,7.07,10,14.15,15.26,21.03c2.1,2.75,2.75,5.17,1.78,8.63c-2.49,8.91-2.27,17.77,1.91,26.29c6.11,12.44,21.89,18.5,35.44,13.04
  c-4.65-0.48-8.81-0.56-12.81-1.39c-15.95-3.31-24.9-17.72-20.92-33.47c0.73-2.9,1.72-5.74,2.68-8.57
  c4.85-14.31,9.87-28.57,14.51-42.95c1.2-3.72,2.74-5.92,7.41-5.3c-0.17,2.54-0.43,5.13-0.52,7.72c-0.17,5.15-0.81,10.36-0.27,15.44
  c1.9,17.74,12.69,28.07,30.57,29.86c1.15,0.12,2.31,0.21,4.07,0.38c0,7.32,0,14.6,0,21.89c0,7.14,0,14.27,0,20.63
  c-17.3,2.78-34.11,5.47-50.12,8.04c-8.66-10.95-18.01-21.75-26.13-33.41c-4.87-6.99-8.19-15.17-11.45-23.12
  c-1.63-3.99-3.42-5.07-7.36-3.98c-5.29,1.46-10.68,2.56-16.01,3.87c-13.57,3.32-26.76,1.96-39.69-3.08
  c-17.35-6.76-33.21-16.07-47.88-27.52c-4.19-3.27-5.24-6.47-3.73-11.92c6.95-25.01,18.56-47.23,36.24-66.42
  c6.96-7.56,12.82-16.17,18.79-24.59c3.39-4.78,7.53-7.88,13.2-9.04c8.47-1.74,16.96-3.44,25.43-5.19c4.56-0.94,7.86,0.54,9.65,4.93
  c2.45,6,5.07,11.96,7.12,18.1c0.54,1.61-0.39,5.32-1.22,5.51c-5.51,1.26-9.69,6.79-16.08,5.08c-0.46-0.12-1.09-0.17-1.47,0.05
  c-7.04,4.2-12.05-0.14-16.97-4.19c-3.43-2.82-5.83-2.21-8.1,1.33c-7.44,11.65-13.45,23.74-13.19,38.09
  C58.71,172.1,57.17,182.19,52.46,192.23z"/>
<path fill="currentColor" d="M215.1,172.26c0-2.65,0-4.29,0-5.92c-0.1-29.99-0.14-59.98-0.39-89.97c-0.03-3.89,1.31-4.97,4.9-4.75
  c11.01,0.66,20.17,4.23,25.01,15.08c0.47,1.05,1.05,2.11,1.79,2.99c6.52,7.63,6.66,16.27,4.44,25.47c-0.48,1.99-0.2,4.43,0.49,6.4
  c1.89,5.39-0.67,16.65-4.66,20.68c-1.99,2.01-3.84,4.41-4.93,6.99c-4.01,9.42-10.03,16.84-19.53,21.05
  C220.3,171.11,218.14,171.43,215.1,172.26z"/>
<path fill="currentColor" d="M206.95,172.53c-2.26-0.39-4.45-0.4-6.33-1.18c-2.58-1.07-5.11-2.47-7.34-4.15c-11.97-9.04-16.05-23.05-22.18-35.75
  c-0.48-1-0.52-2.29-0.49-3.43c0.22-8.05,0.24-16.11,0.84-24.14c1.37-18.22,17.35-31.79,35.5-29.98
  C206.95,106.53,206.95,139.22,206.95,172.53z"/>
<path fill="currentColor" d="M207.19,298.16c0,20.71,0,40.6,0,60.79c-17.35,0-34.43,0-52.95,0c9.55-17.25,16.09-34.56,3.81-53.45
  C174.83,300.34,190.54,297.89,207.19,298.16z"/>
<path fill="currentColor" d="M138.18,165.99c12.17-3.26,17.75-9.79,17.09-21.8c-0.54-9.91-2.93-19.71-4.25-29.59c-1.62-12.2-0.12-23.96,6.15-34.77
  c5.76-9.94,15.32-15.06,25.28-13.35c3.28,0.56,6.35,2.28,10.75,3.94c-2.33,1.33-3.23,1.91-4.19,2.38
  c-15.9,7.75-23.73,23.34-20.87,40.91c0.47,2.89,0.01,6.13-0.78,9c-1.68,6.09,0.79,14.77,5.51,19.33c1.74,1.68,2.84,4.12,3.91,6.37
  c1.77,3.74,2.61,8.1,5.02,11.32c5.25,7.03,3.63,14.07,0.35,20.65c-3.26,6.52-10.31,7.09-16.62,6.76
  c-9.08-0.47-16.57-5.27-24.9-11.18c10.82-0.57,16.96-5.29,18.67-15.12C153.6,167.2,147.47,171.34,138.18,165.99z"/>
<path fill="currentColor" d="M189.15,171.2c6.25,2.66,11.86,5.04,18,7.65c0,19.85,0,40.44,0,61c-12.44,3.18-26.49-6.76-28.56-20.64
  c-0.98-6.54-0.83-13.27-0.96-19.92c-0.08-4.37,1.01-7.84,4.92-11.13c3.04-2.56,3.99-7.7,5.63-11.79
  C188.83,174.74,188.86,172.86,189.15,171.2z"/>
</svg>
